<?xml version="1.0" encoding="iso-8859-1"?>
<!-- Uploaded to: SVG Repo, www.svgrepo.com, Generator: SVG Repo Mixer Tools -->
<svg height="800px" width="800px" version="1.1" id="Layer_1" xmlns="http://www.w3.org/2000/svg" xmlns:xlink="http://www.w3.org/1999/xlink" 
	 viewBox="0 0 393.568 393.568" xml:space="preserve">
<circle style="fill:#F1F3F7;" cx="196.784" cy="196.784" r="196.784"/>
<path style="fill:#4F5565;" d="M209.39,21.786c-6.788-9.697-18.101-9.697-24.889,0L153.6,73.374h86.432L209.39,21.786z"/>
<path style="fill:#F6CEB0;" d="M319.935,207.257c-19.394,25.923-53.721,25.923-73.374,0c-26.44,25.923-73.115,25.923-99.556,0
	c-19.653,25.923-53.98,25.923-73.374,0l79.903-133.883h86.432L319.935,207.257z"/>
<path style="fill:#59A2CE;" d="M147.006,207.257c0,59.992,0,119.725,0,179.717c15.968,4.202,32.776,6.271,49.778,6.271
	c17.261,0,34.069-2.327,49.778-6.271c0-59.992,0-119.725,0-179.717C220.121,233.18,173.446,233.18,147.006,207.257z"/>
<path style="fill:#6EB1E1;" d="M73.632,207.257c0,47.709,0,95.095,0,142.804c21.204,17.002,46.093,29.867,73.374,36.913
	c0-59.992,0-119.725,0-179.717C127.354,233.18,93.026,233.18,73.632,207.257z"/>
<path style="fill:#4593BA;" d="M246.562,207.257c0,59.992,0,119.725,0,179.717c27.281-7.047,52.17-19.911,73.374-36.913
	c0-47.709,0-95.095,0-142.804C300.541,233.18,266.214,233.18,246.562,207.257z"/>
</svg>