<?xml version="1.0" encoding="utf-8"?><!-- Uploaded to: SVG Repo, www.svgrepo.com, Generator: SVG Repo Mixer Tools -->
<svg fill="#000000" width="800px" height="800px" viewBox="0 0 24 24" id="diagram-bar-uptrend" data-name="Flat Color" xmlns="http://www.w3.org/2000/svg" class="icon flat-color"><path id="secondary" d="M19,18a1,1,0,0,1-1-1V9a1,1,0,0,1,2,0v8A1,1,0,0,1,19,18Zm-4,0a1,1,0,0,1-1-1V11a1,1,0,0,1,2,0v6A1,1,0,0,1,15,18Zm-4,0a1,1,0,0,1-1-1V13a1,1,0,0,1,2,0v4A1,1,0,0,1,11,18ZM7,18a1,1,0,0,1-1-1V15a1,1,0,0,1,2,0v2A1,1,0,0,1,7,18Z" style="fill: rgb(44, 169, 188);"></path><path id="primary" d="M21,22H4a2,2,0,0,1-2-2V3A1,1,0,0,1,4,3V20H21a1,1,0,0,1,0,2Z" style="fill: rgb(0, 0, 0);"></path></svg>