<?xml version="1.0" encoding="iso-8859-1"?>
<!-- Uploaded to: SVG Repo, www.svgrepo.com, Generator: SVG Repo Mixer Tools -->
<svg version="1.1" id="Layer_1" xmlns="http://www.w3.org/2000/svg" xmlns:xlink="http://www.w3.org/1999/xlink" 
	 viewBox="0 0 512 512" xml:space="preserve">
<path style="fill:#918F90;" d="M410.99,0H101.01C87.749,0,76.96,10.788,76.96,24.05v463.9c0,13.262,10.788,24.05,24.05,24.05H410.99
	c13.261,0,24.05-10.788,24.05-24.05V24.05C435.04,10.788,424.25,0,410.99,0z"/>
<path style="fill:#7B7979;" d="M110.63,487.95V24.05c0-13.262,10.788-24.05,24.05-24.05h-33.67C87.749,0,76.96,10.788,76.96,24.05
	v463.9c0,13.262,10.788,24.05,24.05,24.05h33.67C121.419,512,110.63,501.212,110.63,487.95z"/>
<rect x="119.182" y="34.205" style="fill:#C8F4F7;" width="273.637" height="162.472"/>
<g>
	<polygon style="fill:#6DDAE1;" points="119.182,34.205 119.182,88.718 173.695,34.205 	"/>
	<path style="fill:#6DDAE1;" d="M256,34.205L126.242,163.963c-12.072,12.072-3.522,32.713,13.549,32.713h253.027V34.205H256z"/>
</g>
<path style="fill:#FFD791;" d="M384.802,42.221V188.66H127.198V42.221H384.802 M392.818,26.188H119.182
	c-4.427,0-8.017,3.589-8.017,8.017v162.472c0,4.427,3.589,8.017,8.017,8.017h273.637c4.428,0,8.017-3.589,8.017-8.017V34.205
	C400.835,29.777,397.247,26.188,392.818,26.188L392.818,26.188z"/>
<g>
	<path style="fill:#F8BE73;" d="M392.818,222.864H273.102c-4.428,0-8.017,3.589-8.017,8.017v102.614
		c0,4.427,3.588,8.017,8.017,8.017h119.716c4.428,0,8.017-3.589,8.017-8.017V230.881
		C400.835,226.454,397.247,222.864,392.818,222.864z"/>
	<path style="fill:#F8BE73;" d="M238.898,222.864H119.182c-4.427,0-8.017,3.589-8.017,8.017v102.614
		c0,4.427,3.589,8.017,8.017,8.017h119.716c4.427,0,8.017-3.589,8.017-8.017V230.881
		C246.914,226.454,243.325,222.864,238.898,222.864z"/>
	<path style="fill:#F8BE73;" d="M392.284,359.683H272.568c-4.428,0-8.017,3.589-8.017,8.017v102.614
		c0,4.427,3.588,8.017,8.017,8.017h119.716c4.428,0,8.017-3.589,8.017-8.017V367.699
		C400.301,363.272,396.712,359.683,392.284,359.683z"/>
	<path style="fill:#F8BE73;" d="M238.363,359.683H118.647c-4.427,0-8.017,3.589-8.017,8.017v102.614
		c0,4.427,3.589,8.017,8.017,8.017h119.716c4.427,0,8.017-3.589,8.017-8.017V367.699
		C246.38,363.272,242.791,359.683,238.363,359.683z"/>
</g>
<g>
	<rect x="281.119" y="238.898" style="fill:#FFD791;" width="103.683" height="86.58"/>
	<rect x="127.733" y="238.898" style="fill:#FFD791;" width="103.683" height="86.58"/>
	<rect x="127.198" y="376.251" style="fill:#FFD791;" width="103.683" height="86.58"/>
	<rect x="281.119" y="376.251" style="fill:#FFD791;" width="103.683" height="86.58"/>
</g>
<g>
	<path style="fill:#7B7979;" d="M204.693,274.171h-17.637v-17.637c0-4.427-3.589-8.017-8.017-8.017s-8.017,3.589-8.017,8.017v17.637
		h-17.637c-4.427,0-8.017,3.589-8.017,8.017s3.589,8.017,8.017,8.017h17.637v17.637c0,4.427,3.589,8.017,8.017,8.017
		s8.017-3.589,8.017-8.017v-17.637h17.637c4.427,0,8.017-3.589,8.017-8.017S209.12,274.171,204.693,274.171z"/>
	<path style="fill:#7B7979;" d="M358.614,290.205h-51.307c-4.428,0-8.017-3.589-8.017-8.017s3.588-8.017,8.017-8.017h51.307
		c4.428,0,8.017,3.589,8.017,8.017S363.042,290.205,358.614,290.205z"/>
	<path style="fill:#7B7979;" d="M189.842,419.006l19.985-19.985c3.131-3.131,3.131-8.207,0-11.337
		c-3.131-3.131-8.207-3.131-11.337,0l-19.985,19.985l-19.985-19.985c-3.131-3.131-8.207-3.131-11.337,0
		c-3.131,3.131-3.131,8.207,0,11.337l19.985,19.985l-19.985,19.985c-3.131,3.131-3.131,8.207,0,11.337
		c1.565,1.565,3.617,2.348,5.668,2.348s4.103-0.782,5.668-2.348l19.985-19.985l19.985,19.985c1.565,1.565,3.617,2.348,5.668,2.348
		c2.051,0,4.104-0.782,5.668-2.348c3.131-3.131,3.131-8.207,0-11.337L189.842,419.006z"/>
	<path style="fill:#7B7979;" d="M306.772,452.676c-2.051,0-4.103-0.782-5.669-2.348c-3.131-3.131-3.131-8.207,0-11.337
		l51.307-51.307c3.132-3.131,8.207-3.131,11.338,0c3.131,3.131,3.131,8.207,0,11.337l-51.307,51.307
		C310.876,451.894,308.824,452.676,306.772,452.676z"/>
	<path style="fill:#7B7979;" d="M315.858,409.386c-2.051,0-4.103-0.782-5.669-2.348l-8.551-8.551c-3.131-3.131-3.131-8.207,0-11.337
		c3.132-3.131,8.207-3.131,11.338,0l8.551,8.551c3.131,3.131,3.131,8.207,0,11.337C319.962,408.604,317.909,409.386,315.858,409.386
		z"/>
	<path style="fill:#7B7979;" d="M358.614,452.142c-2.051,0-4.103-0.782-5.669-2.348l-8.551-8.551c-3.131-3.131-3.131-8.207,0-11.337
		c3.132-3.131,8.207-3.131,11.338,0l8.551,8.551c3.131,3.131,3.131,8.207,0,11.337C362.717,451.36,360.665,452.142,358.614,452.142z
		"/>
</g>
<path style="fill:#FF8C78;" d="M364.283,105.497L312.976,54.19c-3.132-3.131-8.207-3.131-11.338,0l-51.307,51.307
	c-1.504,1.503-2.348,3.542-2.348,5.668v59.858c0,4.427,3.589,8.017,8.017,8.017h34.205c4.428,0,8.017-3.589,8.017-8.017v-26.188
	h18.171v26.188c0,4.427,3.588,8.017,8.017,8.017h34.205c4.428,0,8.017-3.589,8.017-8.017v-59.858
	C366.63,109.039,365.786,106.999,364.283,105.497z"/>
<path style="fill:#DF7A6E;" d="M250.332,105.497c-1.504,1.503-2.348,3.542-2.348,5.668v59.858c0,4.427,3.589,8.017,8.017,8.017
	h8.551V91.276L250.332,105.497z"/>
</svg>